<svg width="120" height="120" viewBox="0 0 120 120" fill="none" xmlns="http://www.w3.org/2000/svg">
<path d="M60 120C93.1371 120 120 93.1371 120 60C120 26.8629 93.1371 0 60 0C26.8629 0 0 26.8629 0 60C0 93.1371 26.8629 120 60 120Z" fill="url(#paint0_linear_1_610)"/>
<path d="M60.0001 106.045C85.431 106.045 106.047 85.4294 106.047 59.9985C106.047 34.5676 85.431 13.9518 60.0001 13.9518C34.5693 13.9518 13.9535 34.5676 13.9535 59.9985C13.9535 85.4294 34.5693 106.045 60.0001 106.045Z" fill="white"/>
<path d="M86.4432 65.5047L65.4799 41.4714L46.1099 41.5047L83.9065 84.838L86.4432 65.5047Z" fill="#112758"/>
<path d="M53.7562 78.0187L32.7962 53.972L35.3296 34.6387L73.1296 77.972L53.7562 78.0187Z" fill="#112758"/>
<defs>
<linearGradient id="paint0_linear_1_610" x1="60" y1="0" x2="60" y2="120" gradientUnits="userSpaceOnUse">
<stop stop-color="#339DFF"/>
<stop offset="1" stop-color="#78DBE5"/>
</linearGradient>
</defs>
</svg>
